<svg t="1725802574224" class="icon" viewBox="0 0 1024 1024" version="1.1" xmlns="http://www.w3.org/2000/svg" p-id="10583" id="mx_n_1725802574225" width="200" height="200"><path d="M751.701333 297.301333l31.829334-31.829333a42.666667 42.666667 0 1 1 60.330666 60.330667l-31.829333 31.829333a384 384 0 1 1-60.330667-60.330667z m18.944 449.365334a298.666667 298.666667 0 1 0-517.290666-298.666667 298.666667 298.666667 0 0 0 517.290666 298.666667zM512 384a42.666667 42.666667 0 0 1 42.666667 42.666667v170.666666a42.666667 42.666667 0 0 1-85.333334 0v-170.666666a42.666667 42.666667 0 0 1 42.666667-42.666667zM384 85.333333h256a42.666667 42.666667 0 0 1 0 85.333334H384a42.666667 42.666667 0 1 1 0-85.333334z" fill="#71717A" p-id="10584" stroke="#71717A" stroke-width="1"></path></svg>